<svg xmlns="http://www.w3.org/2000/svg" viewBox="0 0 200 60">
  <g fill="#00bacd">
    <path d="M30,10c-11,0-20,9-20,20s9,20,20,20s20-9,20-20S41,10,30,10z M30,45c-8.3,0-15-6.7-15-15s6.7-15,15-15s15,6.7,15,15 S38.3,45,30,45z"/>
    <path d="M30,20c-5.5,0-10,4.5-10,10s4.5,10,10,10s10-4.5,10-10S35.5,20,30,20z"/>
  </g>
  <g fill="#333333">
    <path d="M70,20c-5.5,0-10,4.5-10,10s4.5,10,10,10s10-4.5,10-10S75.5,20,70,20z M70,35c-2.8,0-5-2.2-5-5s2.2-5,5-5s5,2.2,5,5 S72.8,35,70,35z"/>
    <path d="M95,20c-5.5,0-10,4.5-10,10s4.5,10,10,10c2.5,0,4.7-0.9,6.5-2.5l-3.5-3.5c-0.8,0.6-1.9,1-3,1c-2.8,0-5-2.2-5-5s2.2-5,5-5 c1.1,0,2.2,0.4,3,1l3.5-3.5C99.7,20.9,97.5,20,95,20z"/>
    <path d="M115,20v5h-5v5h5v10h5V30h5v-5h-5v-5H115z"/>
    <path d="M135,20c-5.5,0-10,4.5-10,10s4.5,10,10,10s10-4.5,10-10S140.5,20,135,20z M135,35c-2.8,0-5-2.2-5-5s2.2-5,5-5s5,2.2,5,5 S137.8,35,135,35z"/>
    <path d="M155,20v20h5V30l10,10h5l-10-10l10-10h-5l-10,10v-10H155z"/>
    <path d="M185,20v20h5V20H185z"/>
    <path d="M195,20v5h5v15h5V25h5v-5H195z"/>
  </g>
</svg>

